<?xml version="1.0" encoding="UTF-8" standalone="no"?>
<!DOCTYPE svg PUBLIC "-//W3C//DTD SVG 1.1//EN" "http://www.w3.org/Graphics/SVG/1.1/DTD/svg11.dtd">
<svg width="100%" height="100%" viewBox="0 0 512 512" version="1.1" xmlns="http://www.w3.org/2000/svg" xmlns:xlink="http://www.w3.org/1999/xlink" xml:space="preserve" xmlns:serif="http://www.serif.com/" style="fill-rule:evenodd;clip-rule:evenodd;stroke-linecap:round;stroke-linejoin:round;stroke-miterlimit:1.5;">
    <g transform="matrix(1,0,0,1,3.5,-3)">
        <path d="M46.736,163.031C81.476,83.578 160.799,28 253,28C345.201,28 424.524,83.578 459.264,163.031C412.761,125.131 337.662,100.5 253,100.5C168.338,100.5 93.239,125.131 46.736,163.031ZM459.264,342.969C424.524,422.422 345.201,478 253,478C160.799,478 81.476,422.422 46.736,342.969C93.239,380.869 168.338,405.5 253,405.5C337.662,405.5 412.761,380.869 459.264,342.969Z" style="fill:rgb(85,160,227);stroke:rgb(85,160,227);stroke-width:1px;"/>
    </g>
    <g transform="matrix(1,0,0,1,-33.444124,97.207792)">
        <g transform="matrix(100,0,0,100,507.76639,189.071505)">
        </g>
        <text x="86.331px" y="189.072px" style="font-family:'Menlo-Regular', 'Menlo', monospace;font-size:100px;fill:rgb(224,224,224);">In[42]:</text>
    </g>
</svg>
